<svg width="82" height="10" viewBox="0 0 82 10" fill="none" xmlns="http://www.w3.org/2000/svg">
<path d="M9.01705 4.63636C9.01705 5.60795 8.82813 6.42756 8.45028 7.09517C8.07244 7.75994 7.5625 8.2642 6.92045 8.60795C6.27841 8.94886 5.5625 9.11932 4.77273 9.11932C3.97727 9.11932 3.25852 8.94744 2.61648 8.60369C1.97727 8.2571 1.46875 7.75142 1.09091 7.08665C0.715909 6.41903 0.528409 5.60227 0.528409 4.63636C0.528409 3.66477 0.715909 2.84659 1.09091 2.18182C1.46875 1.5142 1.97727 1.00994 2.61648 0.669034C3.25852 0.325284 3.97727 0.153409 4.77273 0.153409C5.5625 0.153409 6.27841 0.325284 6.92045 0.669034C7.5625 1.00994 8.07244 1.5142 8.45028 2.18182C8.82813 2.84659 9.01705 3.66477 9.01705 4.63636ZM6.57955 4.63636C6.57955 4.11364 6.50994 3.6733 6.37074 3.31534C6.23438 2.95455 6.03125 2.68182 5.76136 2.49716C5.49432 2.30966 5.16477 2.21591 4.77273 2.21591C4.38068 2.21591 4.04972 2.30966 3.77983 2.49716C3.51278 2.68182 3.30966 2.95455 3.17045 3.31534C3.03409 3.6733 2.96591 4.11364 2.96591 4.63636C2.96591 5.15909 3.03409 5.60085 3.17045 5.96165C3.30966 6.3196 3.51278 6.59233 3.77983 6.77983C4.04972 6.96449 4.38068 7.05682 4.77273 7.05682C5.16477 7.05682 5.49432 6.96449 5.76136 6.77983C6.03125 6.59233 6.23438 6.3196 6.37074 5.96165C6.50994 5.60085 6.57955 5.15909 6.57955 4.63636ZM11.7784 9L9.20455 0.272727H11.8466L13.0398 5.64205H13.108L14.5227 0.272727H16.6023L18.017 5.65909H18.0852L19.2784 0.272727H21.9205L19.3466 9H17.0795L15.5966 4.125H15.5284L14.0455 9H11.7784ZM30.2844 3.54545H27.881C27.864 3.34659 27.8185 3.16619 27.7447 3.00426C27.6737 2.84233 27.5742 2.70312 27.4464 2.58665C27.3214 2.46733 27.1694 2.37642 26.9904 2.31392C26.8114 2.24858 26.6083 2.21591 26.381 2.21591C25.9833 2.21591 25.6467 2.3125 25.3711 2.50568C25.0984 2.69886 24.891 2.97585 24.7489 3.33665C24.6097 3.69744 24.5401 4.13068 24.5401 4.63636C24.5401 5.17045 24.6112 5.6179 24.7532 5.97869C24.8981 6.33665 25.1069 6.60653 25.3796 6.78835C25.6523 6.96733 25.9805 7.05682 26.364 7.05682C26.5827 7.05682 26.7788 7.02983 26.9521 6.97585C27.1254 6.91903 27.2759 6.83807 27.4038 6.73295C27.5316 6.62784 27.6353 6.50142 27.7148 6.35369C27.7972 6.20312 27.8526 6.03409 27.881 5.84659L30.2844 5.86364C30.256 6.23295 30.1523 6.60937 29.9734 6.9929C29.7944 7.37358 29.5401 7.72585 29.2106 8.04972C28.8839 8.37074 28.479 8.62926 27.9961 8.82528C27.5131 9.02131 26.9521 9.11932 26.3129 9.11932C25.5117 9.11932 24.793 8.94744 24.1566 8.60369C23.5231 8.25994 23.0217 7.75426 22.6523 7.08665C22.2859 6.41903 22.1026 5.60227 22.1026 4.63636C22.1026 3.66477 22.2901 2.84659 22.6651 2.18182C23.0401 1.5142 23.5458 1.00994 24.1822 0.669034C24.8185 0.325284 25.5288 0.153409 26.3129 0.153409C26.864 0.153409 27.3711 0.228693 27.8342 0.379261C28.2972 0.529829 28.7035 0.75 29.0529 1.03977C29.4023 1.3267 29.6836 1.6804 29.8967 2.10085C30.1097 2.52131 30.239 3.00284 30.2844 3.54545ZM35.0923 9V2.45455H36.0639V3.47727H36.1491C36.2855 3.12784 36.5057 2.85653 36.8097 2.66335C37.1136 2.46733 37.4787 2.36932 37.9048 2.36932C38.3366 2.36932 38.696 2.46733 38.983 2.66335C39.2727 2.85653 39.4986 3.12784 39.6605 3.47727H39.7287C39.8963 3.1392 40.1477 2.87074 40.483 2.67188C40.8182 2.47017 41.2202 2.36932 41.6889 2.36932C42.2741 2.36932 42.7528 2.55256 43.125 2.91903C43.4972 3.28267 43.6832 3.84943 43.6832 4.61932V9H42.6776V4.61932C42.6776 4.13636 42.5455 3.79119 42.2812 3.58381C42.017 3.37642 41.706 3.27273 41.348 3.27273C40.8878 3.27273 40.5313 3.41193 40.2784 3.69034C40.0256 3.96591 39.8991 4.31534 39.8991 4.73864V9H38.8764V4.51705C38.8764 4.14489 38.7557 3.84517 38.5142 3.6179C38.2727 3.38778 37.9616 3.27273 37.581 3.27273C37.3196 3.27273 37.0753 3.34233 36.848 3.48153C36.6236 3.62074 36.4418 3.81392 36.3026 4.06108C36.1662 4.3054 36.098 4.58807 36.098 4.90909V9H35.0923ZM49.647 6.32386V2.45455H50.6527V9H49.647V7.89205H49.5788C49.4254 8.22443 49.1868 8.5071 48.8629 8.74006C48.5391 8.97017 48.13 9.08523 47.6357 9.08523C47.2266 9.08523 46.8629 8.99574 46.5447 8.81676C46.2266 8.63494 45.9766 8.36222 45.7947 7.99858C45.6129 7.6321 45.522 7.17045 45.522 6.61364V2.45455H46.5277V6.54545C46.5277 7.02273 46.6612 7.40341 46.9283 7.6875C47.1982 7.97159 47.5419 8.11364 47.9595 8.11364C48.2095 8.11364 48.4638 8.04972 48.7223 7.92188C48.9837 7.79403 49.2024 7.59801 49.3786 7.33381C49.5575 7.0696 49.647 6.73295 49.647 6.32386ZM53.5004 0.272727V9H52.4947V0.272727H53.5004ZM58.1889 2.45455V3.30682H54.7969V2.45455H58.1889ZM55.7855 0.886364H56.7912V7.125C56.7912 7.40909 56.8324 7.62216 56.9148 7.7642C57 7.90341 57.108 7.99716 57.2386 8.04545C57.3722 8.09091 57.5128 8.11364 57.6605 8.11364C57.7713 8.11364 57.8622 8.10795 57.9332 8.09659C58.0043 8.08239 58.0611 8.07102 58.1037 8.0625L58.3082 8.96591C58.2401 8.99148 58.1449 9.01705 58.0227 9.04261C57.9006 9.07102 57.7457 9.08523 57.5582 9.08523C57.2741 9.08523 56.9957 9.02415 56.723 8.90199C56.4531 8.77983 56.2287 8.59375 56.0497 8.34375C55.8736 8.09375 55.7855 7.77841 55.7855 7.39773V0.886364ZM59.7017 9V2.45455H60.7074V9H59.7017ZM60.2131 1.36364C60.017 1.36364 59.848 1.29688 59.706 1.16335C59.5668 1.02983 59.4972 0.869318 59.4972 0.681818C59.4972 0.494318 59.5668 0.333807 59.706 0.200284C59.848 0.0667613 60.017 0 60.2131 0C60.4091 0 60.5767 0.0667613 60.7159 0.200284C60.858 0.333807 60.929 0.494318 60.929 0.681818C60.929 0.869318 60.858 1.02983 60.7159 1.16335C60.5767 1.29688 60.4091 1.36364 60.2131 1.36364ZM67.1857 3.92045L66.2823 4.17614C66.2255 4.02557 66.1417 3.87926 66.0309 3.73722C65.9229 3.59233 65.7752 3.47301 65.5877 3.37926C65.4002 3.28551 65.1602 3.23864 64.8675 3.23864C64.467 3.23864 64.1332 3.33097 63.8661 3.51562C63.6019 3.69744 63.4698 3.92898 63.4698 4.21023C63.4698 4.46023 63.5607 4.65767 63.7425 4.80256C63.9244 4.94744 64.2085 5.06818 64.5948 5.16477L65.5664 5.40341C66.1516 5.54545 66.5877 5.76278 66.8746 6.0554C67.1616 6.34517 67.305 6.71875 67.305 7.17614C67.305 7.55114 67.1971 7.88636 66.9812 8.18182C66.7681 8.47727 66.4698 8.71023 66.0863 8.88068C65.7028 9.05114 65.2567 9.13636 64.7482 9.13636C64.0806 9.13636 63.5281 8.99148 63.0906 8.7017C62.6531 8.41193 62.3761 7.98864 62.2596 7.43182L63.2141 7.19318C63.305 7.54545 63.4769 7.80966 63.7298 7.9858C63.9854 8.16193 64.3192 8.25 64.7312 8.25C65.1999 8.25 65.5721 8.15057 65.8477 7.9517C66.1261 7.75 66.2653 7.50852 66.2653 7.22727C66.2653 7 66.1857 6.80966 66.0266 6.65625C65.8675 6.5 65.6232 6.38352 65.2937 6.30682L64.2028 6.05114C63.6033 5.90909 63.163 5.68892 62.8817 5.39062C62.6033 5.08949 62.4641 4.71307 62.4641 4.26136C62.4641 3.89205 62.5678 3.56534 62.7752 3.28125C62.9854 2.99716 63.271 2.77415 63.6317 2.61222C63.9954 2.45028 64.4073 2.36932 64.8675 2.36932C65.5153 2.36932 66.0238 2.51136 66.3931 2.79545C66.7653 3.07955 67.0295 3.45455 67.1857 3.92045ZM68.8189 9V2.45455H69.8246V9H68.8189ZM69.3303 1.36364C69.1342 1.36364 68.9652 1.29688 68.8232 1.16335C68.6839 1.02983 68.6143 0.869318 68.6143 0.681818C68.6143 0.494318 68.6839 0.333807 68.8232 0.200284C68.9652 0.0667613 69.1342 0 69.3303 0C69.5263 0 69.6939 0.0667613 69.8331 0.200284C69.9751 0.333807 70.0462 0.494318 70.0462 0.681818C70.0462 0.869318 69.9751 1.02983 69.8331 1.16335C69.6939 1.29688 69.5263 1.36364 69.3303 1.36364ZM74.5131 2.45455V3.30682H71.1211V2.45455H74.5131ZM72.1097 0.886364H73.1154V7.125C73.1154 7.40909 73.1566 7.62216 73.239 7.7642C73.3242 7.90341 73.4322 7.99716 73.5629 8.04545C73.6964 8.09091 73.837 8.11364 73.9847 8.11364C74.0955 8.11364 74.1864 8.10795 74.2575 8.09659C74.3285 8.08239 74.3853 8.07102 74.4279 8.0625L74.6325 8.96591C74.5643 8.99148 74.4691 9.01705 74.3469 9.04261C74.2248 9.07102 74.07 9.08523 73.8825 9.08523C73.5984 9.08523 73.32 9.02415 73.0472 8.90199C72.7773 8.77983 72.5529 8.59375 72.3739 8.34375C72.1978 8.09375 72.1097 7.77841 72.1097 7.39773V0.886364ZM78.6999 9.13636C78.0692 9.13636 77.5252 8.99716 77.0678 8.71875C76.6133 8.4375 76.2624 8.04545 76.0153 7.54261C75.771 7.03693 75.6488 6.44886 75.6488 5.77841C75.6488 5.10795 75.771 4.51705 76.0153 4.00568C76.2624 3.49148 76.6062 3.09091 77.0465 2.80398C77.4897 2.5142 78.0067 2.36932 78.5977 2.36932C78.9386 2.36932 79.2752 2.42614 79.6076 2.53977C79.94 2.65341 80.2425 2.83807 80.5153 3.09375C80.788 3.34659 81.0053 3.68182 81.1673 4.09943C81.3292 4.51705 81.4102 5.03125 81.4102 5.64205V6.06818H76.3647V5.19886H80.3874C80.3874 4.82955 80.3136 4.5 80.1658 4.21023C80.021 3.92045 79.8136 3.69176 79.5437 3.52415C79.2766 3.35653 78.9613 3.27273 78.5977 3.27273C78.1971 3.27273 77.8505 3.37216 77.5579 3.57102C77.2681 3.76705 77.0451 4.02273 76.8888 4.33807C76.7326 4.65341 76.6545 4.99148 76.6545 5.35227V5.93182C76.6545 6.42614 76.7397 6.84517 76.9102 7.18892C77.0835 7.52983 77.3235 7.78977 77.6303 7.96875C77.9371 8.14489 78.2937 8.23295 78.6999 8.23295C78.9641 8.23295 79.2028 8.19602 79.4158 8.12216C79.6317 8.04545 79.8178 7.93182 79.9741 7.78125C80.1303 7.62784 80.2511 7.4375 80.3363 7.21023L81.3079 7.48295C81.2056 7.8125 81.0337 8.10227 80.7923 8.35227C80.5508 8.59943 80.2525 8.79261 79.8974 8.93182C79.5423 9.06818 79.1431 9.13636 78.6999 9.13636Z" fill="black"/>
</svg>
