<svg width="21" height="20" viewBox="0 0 21 20" fill="none" xmlns="http://www.w3.org/2000/svg">
<path d="M12.8961 0.336469L12.896 0.336441C12.8961 0.223904 12.9824 0.150244 13.0615 0.150244H19.6656C19.772 0.150244 19.8521 0.230379 19.8521 0.336765V6.89789C19.8521 7.00428 19.772 7.08441 19.6656 7.08441H18.4878C18.3814 7.08441 18.3013 7.00428 18.3013 6.89789V3.13344V2.77133L18.0452 3.02737L12.7241 8.34807L12.8302 8.45414L12.7241 8.34808C12.6565 8.41566 12.5411 8.41566 12.4735 8.34807L11.6323 7.50693L11.6323 7.50693C11.5648 7.43939 11.5647 7.32409 11.6322 7.25649C11.6323 7.25646 11.6323 7.25643 11.6323 7.2564L16.9532 1.95694L17.2105 1.70066H16.8474H13.0826C12.9762 1.70066 12.8961 1.62052 12.8961 1.51414V0.336469Z" fill="white" stroke="#001759" stroke-width="0.3"/>
<path d="M7.25699 11.6309L7.26104 11.6268C7.3252 11.5673 7.44292 11.5571 7.53844 11.6195L8.36989 12.4509L8.47596 12.3448L8.3699 12.4509C8.43748 12.5185 8.43748 12.6338 8.36989 12.7014L3.04878 18.0221L2.79271 18.2782L3.15484 18.2782L6.91958 18.2784C7.026 18.2784 7.10613 18.3585 7.10613 18.4649V19.6425C7.10613 19.7489 7.026 19.8291 6.91958 19.8291H0.336547C0.230128 19.8291 0.15 19.7489 0.15 19.6425V13.06C0.15 12.9536 0.230125 12.8735 0.336547 12.8735H1.5143C1.62072 12.8735 1.70085 12.9536 1.70085 13.06V16.8245V17.1866L1.95691 16.9305L7.25699 11.6309Z" fill="white" stroke="#001759" stroke-width="0.3"/>
<path d="M18.0242 16.9304L18.2803 17.1865L18.2803 16.8243L18.2802 13.06C18.2802 12.9536 18.3603 12.8734 18.4667 12.8734H19.6445C19.7509 12.8734 19.831 12.9536 19.831 13.06L19.8312 19.6635C19.8312 19.7699 19.7511 19.85 19.6446 19.85H13.0616C12.9552 19.85 12.8751 19.7699 12.8751 19.6635V18.4859C12.8751 18.3795 12.9552 18.2993 13.0616 18.2993L16.8474 18.2992L17.2095 18.2992L16.9534 18.0431L11.6323 12.7224L11.6323 12.7224C11.5647 12.6548 11.5647 12.5395 11.6323 12.4719L12.4735 11.6307L12.4735 11.6307C12.5411 11.5632 12.6565 11.5632 12.7241 11.6307L18.0242 16.9304Z" fill="white" stroke="#001759" stroke-width="0.3"/>
<path d="M7.0851 0.336521V1.48995L7.08507 1.49003V1.51427C7.08507 1.62699 6.99875 1.70079 6.9195 1.70079H3.15476H2.79261L3.0487 1.95686L8.36981 7.27756L8.47587 7.17149L8.36982 7.27757C8.43739 7.34513 8.4374 7.46051 8.36981 7.52809L7.5286 8.36923L7.5286 8.36924C7.46102 8.43682 7.34562 8.43682 7.27803 8.36924L1.95691 3.04853L1.70085 2.79249V3.1546V6.91905C1.70085 7.02544 1.62073 7.10557 1.5143 7.10557H0.336547C0.230127 7.10557 0.15 7.02544 0.15 6.91905V0.336521C0.15 0.230137 0.230125 0.15 0.336547 0.15H6.89855C7.00497 0.15 7.0851 0.230135 7.0851 0.336521Z" fill="white" stroke="#001759" stroke-width="0.3"/>
</svg>
