<svg width="40" height="40" fill="none" xmlns="http://www.w3.org/2000/svg"><mask id="a" style="mask-type:alpha" maskUnits="userSpaceOnUse" x="0" y="0" width="40" height="40"><circle cx="20" cy="20" r="20"/></mask><g mask="url(#a)"><circle cx="20" cy="20" r="20"/><g fill-rule="evenodd" clip-rule="evenodd" fill="#fff"><path d="M9.65 10.14 8.159 7.295l1.483-2.852h.001l1.484 2.852L9.67 10.14H9.65Zm-8.552 1.31L-1.068 9.13l.697-3.164h.002l2.16 2.33-.672 3.15-.02.006ZM20.41 9.13l-2.166 2.322-.02-.006-.673-3.15 2.16-2.33h.002l.698 3.164Zm7.826 1.614s-1.799 2.602-2.779 4.465l.17-2.898 2.61-1.567Zm-34.083 4.623c-.98-1.863-2.78-4.464-2.78-4.464l2.61 1.567.17 2.897ZM8.544 24.574a7.169 7.169 0 0 1 1.218-.111h.033a7.15 7.15 0 0 1 1.218.105c-.278-.222-.915-.742-.915-.742l.252-2.246s.66-.023 1.08-.047c.419-.025.747-.241.984-.764a1.627 1.627 0 0 0-.182-1.611c-.331-.432-.676-.425-.676-.425s.206-.113.32-.445c.157-.455.11-.875-.277-1.307-.387-.433-1.032-.124-1.032-.124.031-.113.11-.732-.185-1.13-.127-.173-.405-.36-.587-.362l-.033.006c-.182.001-.46.189-.587.362-.295.398-.216 1.017-.185 1.13 0 0-.645-.309-1.032.123-.388.433-.434.853-.277 1.308.114.332.32.445.32.445s-.345-.007-.676.425a1.627 1.627 0 0 0-.182 1.612c.237.522.565.738.984.763.42.024 1.08.047 1.08.047l.252 2.247s-.637.52-.915.741Zm1.82-3.064-.559.01h-.007l-.558-.01-1.201-1.495 1.75.924h.025l1.75-.924-1.2 1.495ZM6.126 36.876c1.504.324 3.666.334 3.677.334.01 0 2.172-.01 3.677-.334 1.508-.323 3.035-.847 4.422-1.733 1.387-.886 1.917-1.982 1.927-2.258 0 0-.857-.761-1.136-.981-.493-.39-1.387-.867-1.387-.867s-.521.743-1.592 1.172c-1.07.428-1.992.762-3.621.962-1.519.186-2.204.166-2.29.162h.01-.02.01c-.086.004-.771.024-2.29-.162-1.63-.2-2.55-.534-3.621-.962-1.07-.429-1.592-1.172-1.592-1.172s-.894.476-1.387.867c-.279.22-1.136.981-1.136.981.01.276.54 1.372 1.927 2.258 1.387.886 2.914 1.41 4.422 1.733Zm3.69-7.944c-.218 0-1.942.012-3.04.19l-.11.018c-.512.08-1.992.309-3.25.773a10.677 10.677 0 0 0-2.69 1.496c-.316.238-.94.762-.94.762.167-1.391 2.476-2.41 2.848-2.563l.087-.036c.589-.253 3.11-1.331 7.096-1.336 3.986.005 6.505 1.083 7.095 1.335l.087.037c.372.153 2.68 1.172 2.848 2.563 0 0-.624-.524-.94-.762a10.678 10.678 0 0 0-2.69-1.496c-1.258-.464-2.737-.694-3.249-.773a22.818 22.818 0 0 1-.112-.018c-1.097-.178-2.821-.19-3.04-.19Zm0-.696h-.022.045-.022Zm14.323-7.85s-1.285 2.649-1.872 4.22c0 0-.605-.895-1.126-1.238 0 0 .651 1.388.611 1.734l.28.153s-.497 1.282-.888 2.66c0 0-.111-.324-.962-.704l1.03-.153.528-1.912s-.789-.54-.95-.66l-.006-.005-.008-.006-.018-.013c-.173-.127-.5-.367-.564-.903-.068-.572.113-.99.472-1.169.36-.178.733-.076.894.013 0 0-.18-.368-.1-.787.081-.42.33-.566.484-.642.156-.076.427-.162.795-.006.223.094.306.26.306.26s.09-.1.103-.172c.028-.157.242-.476.435-.578.192-.1.376-.136.556-.091Zm-26.8 4.22c-.587-1.571-1.871-4.22-1.871-4.22.18-.044.362-.009.555.092.193.102.407.421.435.578a.493.493 0 0 0 .103.173s.083-.167.306-.261c.368-.156.639-.07.794.006.156.076.404.222.485.642.08.419-.1.787-.1.787.161-.09.534-.19.894-.013.36.178.54.597.471 1.169-.063.536-.39.775-.563.903a2.87 2.87 0 0 0-.032.024c-.161.12-.95.66-.95.66l.528 1.912 1.03.152c-.85.381-.962.706-.962.706-.391-1.379-.887-2.661-.887-2.661l.279-.153c-.04-.346.61-1.733.61-1.733-.52.343-1.125 1.238-1.125 1.238Zm6.644.443c-.366.1-.755.242-1.15.426.212-.289.696-.96.696-.96l-.814-2.102s-.644.154-1.055.242c-.411.088-.783-.034-1.144-.475a1.627 1.627 0 0 1-.234-1.605c.21-.505.544-.59.544-.59s-.227-.054-.422-.344c-.267-.398-.329-.816-.065-1.337.264-.52.965-.393.965-.393-.058-.101-.292-.678-.109-1.141.08-.2.3-.456.475-.505l.034-.004c.176-.047.492.06.659.193.386.306.467.925.466 1.043 0 0 .544-.47 1.027-.156.484.314.636.708.6 1.188-.026.352-.195.515-.195.515s.33-.098.76.23c.434.332.682.942.586 1.509-.097.567-.358.863-.756.999-.4.135-1.032.333-1.032.333l.328 2.236s.748.332 1.072.473c-.43.043-.839.114-1.204.216l-.032.01Zm-.751-2.84.537-.159.779-1.763-1.455 1.358-.024.006-1.925-.426 1.54 1.124.541-.139.007-.002ZM14.4 24.822c.431.044.84.114 1.204.217l.032.01c.367.099.756.241 1.15.425-.212-.289-.695-.96-.695-.96l.814-2.102s.644.154 1.055.242c.41.087.782-.034 1.144-.475.361-.44.446-1.096.234-1.605-.21-.505-.544-.59-.544-.59s.226-.054.422-.344c.266-.398.328-.816.064-1.337-.264-.52-.965-.393-.965-.393.059-.101.293-.678.11-1.141-.08-.2-.3-.456-.476-.506l-.034-.003c-.175-.047-.492.06-.659.193-.386.306-.467.925-.466 1.043 0 0-.543-.47-1.027-.156-.484.314-.636.708-.6 1.188.026.352.196.515.196.515s-.331-.098-.76.23a1.615 1.615 0 0 0-.586 1.509c.096.567.358.863.756.999.399.135 1.031.332 1.031.332l-.328 2.237s-.747.332-1.072.473Zm1.994-2.613-.006-.002-.537-.157-.78-1.764 1.456 1.358.024.006 1.925-.426-1.54 1.124-.542-.139Z"/></g></g></svg>
